<svg xmlns="http://www.w3.org/2000/svg" viewBox="0 0 45 45" width="45" height="45">
  <!-- White Knight -->
  <g fill="#fff" stroke="#000" stroke-width="1.5" stroke-linecap="round" stroke-linejoin="round">
    <!-- Knight head and mane -->
    <path d="M 22,10 C 32.5,11 38.5,18 38,39 L 15,39 C 15,30 25,32.5 25,20 C 25,17.5 24.5,15.5 22,10 z" />
    <!-- Knight eye -->
    <path d="M 24,18 C 24.5,18.5 25,19.5 25,20 C 25,20.5 24.5,21 24,21 C 23.5,21 23,20.5 23,20 C 23,19.5 23.5,18.5 24,18 z" fill="#000" />
    <!-- Knight base -->
    <path d="M 9,39 L 17,39 L 17,36 L 11,36 L 11,33 L 15,33 L 15,30 L 11,30 L 11,27 L 15,27 L 15,24 L 11,24 L 11,21 L 15,21 L 15,18 L 11,18 L 11,15 L 15,15 L 15,12 L 11,12 L 11,9 L 17,9 L 17,6 L 28,6 L 28,9 L 34,9 L 34,12 L 30,12 L 30,15 L 34,15 L 34,18 L 30,18 L 30,21 L 34,21 L 34,24 L 30,24 L 30,27 L 34,27 L 34,30 L 30,30 L 30,33 L 34,33 L 34,36 L 28,36 L 28,39 L 36,39" />
  </g>
</svg>
